<mxfile host="Electron" modified="2024-01-02T19:49:59.094Z" agent="Mozilla/5.0 (Windows NT 10.0; Win64; x64) AppleWebKit/537.36 (KHTML, like Gecko) draw.io/22.1.16 Chrome/120.0.6099.109 Electron/28.1.0 Safari/537.36" etag="4CLzZg7Jx56AJ71IFQxi" version="22.1.16" type="device">
  <diagram id="C5RBs43oDa-KdzZeNtuy" name="Page-1">
    <mxGraphModel dx="981" dy="567" grid="1" gridSize="10" guides="1" tooltips="1" connect="1" arrows="1" fold="1" page="1" pageScale="1" pageWidth="827" pageHeight="1169" math="0" shadow="0">
      <root>
        <mxCell id="WIyWlLk6GJQsqaUBKTNV-0" />
        <mxCell id="WIyWlLk6GJQsqaUBKTNV-1" parent="WIyWlLk6GJQsqaUBKTNV-0" />
        <mxCell id="5Mziw4J-WXbQ9pku5D82-3" value="" style="edgeStyle=orthogonalEdgeStyle;rounded=0;orthogonalLoop=1;jettySize=auto;html=1;" edge="1" parent="WIyWlLk6GJQsqaUBKTNV-1" source="5Mziw4J-WXbQ9pku5D82-1">
          <mxGeometry relative="1" as="geometry">
            <mxPoint x="300" y="130" as="targetPoint" />
          </mxGeometry>
        </mxCell>
        <mxCell id="5Mziw4J-WXbQ9pku5D82-1" value="" style="strokeWidth=2;html=1;shape=mxgraph.flowchart.start_2;whiteSpace=wrap;fillColor=#000000;aspect=fixed;" vertex="1" parent="WIyWlLk6GJQsqaUBKTNV-1">
          <mxGeometry x="290" y="40" width="20" height="20" as="geometry" />
        </mxCell>
        <mxCell id="5Mziw4J-WXbQ9pku5D82-5" value="S1" style="strokeWidth=2;html=1;shape=mxgraph.flowchart.start_2;whiteSpace=wrap;aspect=fixed;" vertex="1" parent="WIyWlLk6GJQsqaUBKTNV-1">
          <mxGeometry x="265" y="130" width="70" height="70" as="geometry" />
        </mxCell>
        <mxCell id="5Mziw4J-WXbQ9pku5D82-6" value="S2" style="strokeWidth=2;html=1;shape=mxgraph.flowchart.start_2;whiteSpace=wrap;aspect=fixed;" vertex="1" parent="WIyWlLk6GJQsqaUBKTNV-1">
          <mxGeometry x="150" y="260" width="70" height="70" as="geometry" />
        </mxCell>
        <mxCell id="5Mziw4J-WXbQ9pku5D82-7" value="S3" style="strokeWidth=2;html=1;shape=mxgraph.flowchart.start_2;whiteSpace=wrap;aspect=fixed;" vertex="1" parent="WIyWlLk6GJQsqaUBKTNV-1">
          <mxGeometry x="380" y="260" width="70" height="70" as="geometry" />
        </mxCell>
        <mxCell id="5Mziw4J-WXbQ9pku5D82-10" value="" style="curved=1;endArrow=classic;html=1;rounded=0;entryX=0.5;entryY=0;entryDx=0;entryDy=0;entryPerimeter=0;exitX=0;exitY=0.5;exitDx=0;exitDy=0;exitPerimeter=0;" edge="1" parent="WIyWlLk6GJQsqaUBKTNV-1" source="5Mziw4J-WXbQ9pku5D82-5" target="5Mziw4J-WXbQ9pku5D82-6">
          <mxGeometry width="50" height="50" relative="1" as="geometry">
            <mxPoint x="120" y="250" as="sourcePoint" />
            <mxPoint x="170" y="200" as="targetPoint" />
            <Array as="points">
              <mxPoint x="230" y="160" />
              <mxPoint x="180" y="200" />
            </Array>
          </mxGeometry>
        </mxCell>
        <mxCell id="5Mziw4J-WXbQ9pku5D82-13" value="Receive command &#39;m&#39;" style="edgeLabel;html=1;align=center;verticalAlign=middle;resizable=0;points=[];fontSize=11;fontFamily=Helvetica;fontColor=default;" vertex="1" connectable="0" parent="5Mziw4J-WXbQ9pku5D82-10">
          <mxGeometry x="0.1483" y="7" relative="1" as="geometry">
            <mxPoint as="offset" />
          </mxGeometry>
        </mxCell>
        <mxCell id="5Mziw4J-WXbQ9pku5D82-12" value="" style="curved=1;endArrow=classic;html=1;rounded=0;labelBackgroundColor=default;strokeColor=default;align=center;verticalAlign=middle;fontFamily=Helvetica;fontSize=11;fontColor=default;shape=connector;exitX=1;exitY=0.5;exitDx=0;exitDy=0;exitPerimeter=0;entryX=0.5;entryY=0;entryDx=0;entryDy=0;entryPerimeter=0;" edge="1" parent="WIyWlLk6GJQsqaUBKTNV-1" source="5Mziw4J-WXbQ9pku5D82-5" target="5Mziw4J-WXbQ9pku5D82-7">
          <mxGeometry width="50" height="50" relative="1" as="geometry">
            <mxPoint x="380" y="230" as="sourcePoint" />
            <mxPoint x="430" y="180" as="targetPoint" />
            <Array as="points">
              <mxPoint x="380" y="160" />
              <mxPoint x="400" y="180" />
              <mxPoint x="420" y="220" />
            </Array>
          </mxGeometry>
        </mxCell>
        <mxCell id="5Mziw4J-WXbQ9pku5D82-14" value="Receive command &#39;c&#39;" style="edgeLabel;html=1;align=center;verticalAlign=middle;resizable=0;points=[];fontSize=11;fontFamily=Helvetica;fontColor=default;" vertex="1" connectable="0" parent="5Mziw4J-WXbQ9pku5D82-12">
          <mxGeometry x="0.1895" y="1" relative="1" as="geometry">
            <mxPoint as="offset" />
          </mxGeometry>
        </mxCell>
        <mxCell id="5Mziw4J-WXbQ9pku5D82-15" value="S4" style="strokeWidth=2;html=1;shape=mxgraph.flowchart.start_2;whiteSpace=wrap;aspect=fixed;" vertex="1" parent="WIyWlLk6GJQsqaUBKTNV-1">
          <mxGeometry x="265" y="330" width="70" height="70" as="geometry" />
        </mxCell>
        <mxCell id="5Mziw4J-WXbQ9pku5D82-16" value="" style="endArrow=classic;html=1;rounded=0;labelBackgroundColor=default;strokeColor=default;align=center;verticalAlign=middle;fontFamily=Helvetica;fontSize=11;fontColor=default;shape=connector;curved=1;exitX=0.5;exitY=1;exitDx=0;exitDy=0;exitPerimeter=0;entryX=0.5;entryY=0;entryDx=0;entryDy=0;entryPerimeter=0;" edge="1" parent="WIyWlLk6GJQsqaUBKTNV-1" source="5Mziw4J-WXbQ9pku5D82-5" target="5Mziw4J-WXbQ9pku5D82-15">
          <mxGeometry width="50" height="50" relative="1" as="geometry">
            <mxPoint x="320" y="290" as="sourcePoint" />
            <mxPoint x="370" y="240" as="targetPoint" />
          </mxGeometry>
        </mxCell>
        <mxCell id="5Mziw4J-WXbQ9pku5D82-17" value="Receive command &#39;l&#39;" style="edgeLabel;html=1;align=center;verticalAlign=middle;resizable=0;points=[];fontSize=11;fontFamily=Helvetica;fontColor=default;" vertex="1" connectable="0" parent="5Mziw4J-WXbQ9pku5D82-16">
          <mxGeometry x="-0.2872" y="2" relative="1" as="geometry">
            <mxPoint as="offset" />
          </mxGeometry>
        </mxCell>
        <mxCell id="5Mziw4J-WXbQ9pku5D82-20" value="" style="endArrow=classic;html=1;rounded=0;labelBackgroundColor=default;strokeColor=default;align=center;verticalAlign=middle;fontFamily=Helvetica;fontSize=11;fontColor=default;shape=connector;curved=1;exitX=-0.041;exitY=0.478;exitDx=0;exitDy=0;exitPerimeter=0;entryX=0.145;entryY=0.145;entryDx=0;entryDy=0;entryPerimeter=0;" edge="1" parent="WIyWlLk6GJQsqaUBKTNV-1" source="5Mziw4J-WXbQ9pku5D82-6" target="5Mziw4J-WXbQ9pku5D82-5">
          <mxGeometry width="50" height="50" relative="1" as="geometry">
            <mxPoint x="30" y="300" as="sourcePoint" />
            <mxPoint x="80" y="250" as="targetPoint" />
            <Array as="points">
              <mxPoint x="40" y="120" />
            </Array>
          </mxGeometry>
        </mxCell>
        <mxCell id="5Mziw4J-WXbQ9pku5D82-36" value="When music is over" style="edgeLabel;html=1;align=center;verticalAlign=middle;resizable=0;points=[];fontSize=11;fontFamily=Helvetica;fontColor=default;" vertex="1" connectable="0" parent="5Mziw4J-WXbQ9pku5D82-20">
          <mxGeometry x="-0.7414" y="-5" relative="1" as="geometry">
            <mxPoint as="offset" />
          </mxGeometry>
        </mxCell>
        <mxCell id="5Mziw4J-WXbQ9pku5D82-21" value="" style="endArrow=classic;html=1;rounded=0;labelBackgroundColor=default;strokeColor=default;align=center;verticalAlign=middle;fontFamily=Helvetica;fontSize=11;fontColor=default;shape=connector;curved=1;exitX=1;exitY=0.5;exitDx=0;exitDy=0;exitPerimeter=0;entryX=0.855;entryY=0.145;entryDx=0;entryDy=0;entryPerimeter=0;" edge="1" parent="WIyWlLk6GJQsqaUBKTNV-1" source="5Mziw4J-WXbQ9pku5D82-7" target="5Mziw4J-WXbQ9pku5D82-5">
          <mxGeometry width="50" height="50" relative="1" as="geometry">
            <mxPoint x="490" y="260" as="sourcePoint" />
            <mxPoint x="540" y="210" as="targetPoint" />
            <Array as="points">
              <mxPoint x="570" y="110" />
            </Array>
          </mxGeometry>
        </mxCell>
        <mxCell id="5Mziw4J-WXbQ9pku5D82-38" value="After order changed" style="edgeLabel;html=1;align=center;verticalAlign=middle;resizable=0;points=[];fontSize=11;fontFamily=Helvetica;fontColor=default;" vertex="1" connectable="0" parent="5Mziw4J-WXbQ9pku5D82-21">
          <mxGeometry x="-0.7965" y="3" relative="1" as="geometry">
            <mxPoint y="-23" as="offset" />
          </mxGeometry>
        </mxCell>
        <mxCell id="5Mziw4J-WXbQ9pku5D82-22" value="" style="endArrow=classic;html=1;rounded=0;labelBackgroundColor=default;strokeColor=default;align=center;verticalAlign=middle;fontFamily=Helvetica;fontSize=11;fontColor=default;shape=connector;curved=1;exitX=1;exitY=0.5;exitDx=0;exitDy=0;exitPerimeter=0;entryX=0.744;entryY=0.022;entryDx=0;entryDy=0;entryPerimeter=0;" edge="1" parent="WIyWlLk6GJQsqaUBKTNV-1" source="5Mziw4J-WXbQ9pku5D82-15" target="5Mziw4J-WXbQ9pku5D82-5">
          <mxGeometry width="50" height="50" relative="1" as="geometry">
            <mxPoint x="560" y="430" as="sourcePoint" />
            <mxPoint x="610" y="380" as="targetPoint" />
            <Array as="points">
              <mxPoint x="550" y="370" />
              <mxPoint x="600" y="110" />
            </Array>
          </mxGeometry>
        </mxCell>
        <mxCell id="5Mziw4J-WXbQ9pku5D82-37" value="After data is received" style="edgeLabel;html=1;align=center;verticalAlign=middle;resizable=0;points=[];fontSize=11;fontFamily=Helvetica;fontColor=default;" vertex="1" connectable="0" parent="5Mziw4J-WXbQ9pku5D82-22">
          <mxGeometry x="-0.8516" y="7" relative="1" as="geometry">
            <mxPoint x="23" y="-3" as="offset" />
          </mxGeometry>
        </mxCell>
        <mxCell id="5Mziw4J-WXbQ9pku5D82-23" value="" style="childLayout=tableLayout;recursiveResize=0;shadow=0;fillColor=default;fontFamily=Helvetica;fontSize=11;fontColor=default;" vertex="1" parent="WIyWlLk6GJQsqaUBKTNV-1">
          <mxGeometry x="600" y="160" width="190" height="134" as="geometry" />
        </mxCell>
        <mxCell id="5Mziw4J-WXbQ9pku5D82-24" value="" style="shape=tableRow;horizontal=0;startSize=0;swimlaneHead=0;swimlaneBody=0;top=0;left=0;bottom=0;right=0;dropTarget=0;collapsible=0;recursiveResize=0;expand=0;fontStyle=0;fillColor=none;strokeColor=inherit;fontFamily=Helvetica;fontSize=11;fontColor=default;" vertex="1" parent="5Mziw4J-WXbQ9pku5D82-23">
          <mxGeometry width="190" height="30" as="geometry" />
        </mxCell>
        <mxCell id="5Mziw4J-WXbQ9pku5D82-25" value="State" style="connectable=0;recursiveResize=0;strokeColor=inherit;fillColor=none;align=center;whiteSpace=wrap;html=1;fontFamily=Helvetica;fontSize=11;fontColor=default;" vertex="1" parent="5Mziw4J-WXbQ9pku5D82-24">
          <mxGeometry width="40" height="30" as="geometry">
            <mxRectangle width="40" height="30" as="alternateBounds" />
          </mxGeometry>
        </mxCell>
        <mxCell id="5Mziw4J-WXbQ9pku5D82-26" value="Observation" style="connectable=0;recursiveResize=0;strokeColor=inherit;fillColor=none;align=center;whiteSpace=wrap;html=1;fontFamily=Helvetica;fontSize=11;fontColor=default;" vertex="1" parent="5Mziw4J-WXbQ9pku5D82-24">
          <mxGeometry x="40" width="150" height="30" as="geometry">
            <mxRectangle width="150" height="30" as="alternateBounds" />
          </mxGeometry>
        </mxCell>
        <mxCell id="5Mziw4J-WXbQ9pku5D82-28" style="shape=tableRow;horizontal=0;startSize=0;swimlaneHead=0;swimlaneBody=0;top=0;left=0;bottom=0;right=0;dropTarget=0;collapsible=0;recursiveResize=0;expand=0;fontStyle=0;fillColor=none;strokeColor=inherit;fontFamily=Helvetica;fontSize=11;fontColor=default;" vertex="1" parent="5Mziw4J-WXbQ9pku5D82-23">
          <mxGeometry y="30" width="190" height="23" as="geometry" />
        </mxCell>
        <mxCell id="5Mziw4J-WXbQ9pku5D82-29" value="S1" style="connectable=0;recursiveResize=0;strokeColor=inherit;fillColor=none;align=center;whiteSpace=wrap;html=1;fontFamily=Helvetica;fontSize=11;fontColor=default;" vertex="1" parent="5Mziw4J-WXbQ9pku5D82-28">
          <mxGeometry width="40" height="23" as="geometry">
            <mxRectangle width="40" height="23" as="alternateBounds" />
          </mxGeometry>
        </mxCell>
        <mxCell id="5Mziw4J-WXbQ9pku5D82-30" value="Led color changing" style="connectable=0;recursiveResize=0;strokeColor=inherit;fillColor=none;align=center;whiteSpace=wrap;html=1;fontFamily=Helvetica;fontSize=11;fontColor=default;" vertex="1" parent="5Mziw4J-WXbQ9pku5D82-28">
          <mxGeometry x="40" width="150" height="23" as="geometry">
            <mxRectangle width="150" height="23" as="alternateBounds" />
          </mxGeometry>
        </mxCell>
        <mxCell id="5Mziw4J-WXbQ9pku5D82-32" style="shape=tableRow;horizontal=0;startSize=0;swimlaneHead=0;swimlaneBody=0;top=0;left=0;bottom=0;right=0;dropTarget=0;collapsible=0;recursiveResize=0;expand=0;fontStyle=0;fillColor=none;strokeColor=inherit;fontFamily=Helvetica;fontSize=11;fontColor=default;" vertex="1" parent="5Mziw4J-WXbQ9pku5D82-23">
          <mxGeometry y="53" width="190" height="27" as="geometry" />
        </mxCell>
        <mxCell id="5Mziw4J-WXbQ9pku5D82-33" value="S2" style="connectable=0;recursiveResize=0;strokeColor=inherit;fillColor=none;align=center;whiteSpace=wrap;html=1;fontFamily=Helvetica;fontSize=11;fontColor=default;" vertex="1" parent="5Mziw4J-WXbQ9pku5D82-32">
          <mxGeometry width="40" height="27" as="geometry">
            <mxRectangle width="40" height="27" as="alternateBounds" />
          </mxGeometry>
        </mxCell>
        <mxCell id="5Mziw4J-WXbQ9pku5D82-34" value="Playing music" style="connectable=0;recursiveResize=0;strokeColor=inherit;fillColor=none;align=center;whiteSpace=wrap;html=1;fontFamily=Helvetica;fontSize=11;fontColor=default;" vertex="1" parent="5Mziw4J-WXbQ9pku5D82-32">
          <mxGeometry x="40" width="150" height="27" as="geometry">
            <mxRectangle width="150" height="27" as="alternateBounds" />
          </mxGeometry>
        </mxCell>
        <mxCell id="5Mziw4J-WXbQ9pku5D82-40" style="shape=tableRow;horizontal=0;startSize=0;swimlaneHead=0;swimlaneBody=0;top=0;left=0;bottom=0;right=0;dropTarget=0;collapsible=0;recursiveResize=0;expand=0;fontStyle=0;fillColor=none;strokeColor=inherit;fontFamily=Helvetica;fontSize=11;fontColor=default;" vertex="1" parent="5Mziw4J-WXbQ9pku5D82-23">
          <mxGeometry y="80" width="190" height="27" as="geometry" />
        </mxCell>
        <mxCell id="5Mziw4J-WXbQ9pku5D82-41" value="S3" style="connectable=0;recursiveResize=0;strokeColor=inherit;fillColor=none;align=center;whiteSpace=wrap;html=1;fontFamily=Helvetica;fontSize=11;fontColor=default;" vertex="1" parent="5Mziw4J-WXbQ9pku5D82-40">
          <mxGeometry width="40" height="27" as="geometry">
            <mxRectangle width="40" height="27" as="alternateBounds" />
          </mxGeometry>
        </mxCell>
        <mxCell id="5Mziw4J-WXbQ9pku5D82-42" value="Change led order" style="connectable=0;recursiveResize=0;strokeColor=inherit;fillColor=none;align=center;whiteSpace=wrap;html=1;fontFamily=Helvetica;fontSize=11;fontColor=default;" vertex="1" parent="5Mziw4J-WXbQ9pku5D82-40">
          <mxGeometry x="40" width="150" height="27" as="geometry">
            <mxRectangle width="150" height="27" as="alternateBounds" />
          </mxGeometry>
        </mxCell>
        <mxCell id="5Mziw4J-WXbQ9pku5D82-44" style="shape=tableRow;horizontal=0;startSize=0;swimlaneHead=0;swimlaneBody=0;top=0;left=0;bottom=0;right=0;dropTarget=0;collapsible=0;recursiveResize=0;expand=0;fontStyle=0;fillColor=none;strokeColor=inherit;fontFamily=Helvetica;fontSize=11;fontColor=default;" vertex="1" parent="5Mziw4J-WXbQ9pku5D82-23">
          <mxGeometry y="107" width="190" height="27" as="geometry" />
        </mxCell>
        <mxCell id="5Mziw4J-WXbQ9pku5D82-45" value="S4" style="connectable=0;recursiveResize=0;strokeColor=inherit;fillColor=none;align=center;whiteSpace=wrap;html=1;fontFamily=Helvetica;fontSize=11;fontColor=default;" vertex="1" parent="5Mziw4J-WXbQ9pku5D82-44">
          <mxGeometry width="40" height="27" as="geometry">
            <mxRectangle width="40" height="27" as="alternateBounds" />
          </mxGeometry>
        </mxCell>
        <mxCell id="5Mziw4J-WXbQ9pku5D82-46" value="Get data and put message" style="connectable=0;recursiveResize=0;strokeColor=inherit;fillColor=none;align=center;whiteSpace=wrap;html=1;fontFamily=Helvetica;fontSize=11;fontColor=default;" vertex="1" parent="5Mziw4J-WXbQ9pku5D82-44">
          <mxGeometry x="40" width="150" height="27" as="geometry">
            <mxRectangle width="150" height="27" as="alternateBounds" />
          </mxGeometry>
        </mxCell>
        <mxCell id="5Mziw4J-WXbQ9pku5D82-39" value="Idle" style="text;html=1;strokeColor=none;fillColor=none;align=center;verticalAlign=middle;whiteSpace=wrap;rounded=0;fontSize=11;fontFamily=Helvetica;fontColor=default;" vertex="1" parent="WIyWlLk6GJQsqaUBKTNV-1">
          <mxGeometry x="270" y="10" width="60" height="30" as="geometry" />
        </mxCell>
      </root>
    </mxGraphModel>
  </diagram>
</mxfile>
